<?xml version="1.0" encoding="utf-8"?>
<!-- Generator: Adobe Illustrator 15.0.0, SVG Export Plug-In  -->
<!DOCTYPE svg PUBLIC "-//W3C//DTD SVG 1.1//EN" "http://www.w3.org/Graphics/SVG/1.1/DTD/svg11.dtd" [
	<!ENTITY ns_flows "http://ns.adobe.com/Flows/1.0/">
]>
<svg version="1.1"
	 xmlns="http://www.w3.org/2000/svg" xmlns:xlink="http://www.w3.org/1999/xlink" xmlns:a="http://ns.adobe.com/AdobeSVGViewerExtensions/3.0/"
	 x="0px" y="0px" width="200px" height="200px" viewBox="-3.253 1.023 200 200" enable-background="new -3.253 1.023 200 200"
	 xml:space="preserve">
<defs>
</defs>
<rect display="none" fill="#36A9E1" width="188.484" height="196.38"/>
<path fill="#FFFFFF" stroke="#FFFFFF" stroke-miterlimit="10" d="M18.005,110.315c18.295-6.083,53.113-25.239,71.61-30.677
	c8.794-2.585,26.863-9.91,35.068-3.167c3.361,2.763-0.305,13.723-2.941,17.184c-7.01,9.197-20.396,12.558-31.9,13.719
	c-5.321,0.537-13.284,1.153-22.26,1.776c-74.325,5.165-14.431,1.21-64.283,3.88C3.299,113.03,14.457,111.495,18.005,110.315z"/>
<path fill="#FFFFFF" stroke="#FFFFFF" stroke-miterlimit="10" d="M32.365,187.557c6.627,10.878,66.354,8.846,78.96,7.014
	c13.358-1.941,21-6.392,31.447-14.253c3.262-2.456,17.884-20.363,17.884-20.363s-24.849,20.012-38.875,19.305
	c-10.446-0.526-46.11-2.708-49.813-12.517c-3.038-8.047,15.6-57.014,15.6-57.014l0.076-1.264l-24.047,1.871
	C63.597,110.336,24.859,175.238,32.365,187.557z"/>
<path fill="#F9B233" d="M66.312,58.372l107.209-20.614l-51.157,138.487c0,0-13.208-2.036-12.303-2.715s35.21-112.217,35.21-112.217
	L66.312,58.372z"/>
<circle fill="#F9B233" cx="168.348" cy="20.005" r="16.742"/>
</svg>
